<?xml version="1.0" standalone="no"?><!DOCTYPE svg PUBLIC "-//W3C//DTD SVG 1.1//EN" "http://www.w3.org/Graphics/SVG/1.1/DTD/svg11.dtd"><svg t="1685201256261" class="icon" viewBox="0 0 1024 1024" version="1.1" xmlns="http://www.w3.org/2000/svg" p-id="3588" xmlns:xlink="http://www.w3.org/1999/xlink" width="200" height="200"><path d="M621.568 631.808h-229.12c-16.896 0-30.72-13.824-30.72-30.72s13.824-30.72 30.72-30.72h229.12c16.896 0 30.72 13.824 30.72 30.72s-13.824 30.72-30.72 30.72zM620.288 738.048h-229.12c-16.896 0-30.72-13.824-30.72-30.72s13.824-30.72 30.72-30.72h229.12c16.896 0 30.72 13.824 30.72 30.72s-13.824 30.72-30.72 30.72z"  p-id="3589"></path><path d="M505.344 620.544c-8.96 0-17.408-3.84-23.296-10.752l-119.04-138.496c-11.008-12.8-9.728-32.256 3.328-43.264s32.256-9.728 43.264 3.328l94.976 110.592 90.112-110.848c10.752-13.056 29.952-15.104 43.264-4.352 13.056 10.752 15.104 29.952 4.352 43.264L529.408 609.28c-5.632 7.168-14.336 11.264-23.296 11.264h-0.768z"  p-id="3590"></path><path d="M505.344 818.688c-16.896 0-30.72-13.824-30.72-30.72v-219.136c0-16.896 13.824-30.72 30.72-30.72s30.72 13.824 30.72 30.72v219.136c0 17.152-13.824 30.72-30.72 30.72z"  p-id="3591"></path><path d="M506.368 980.48c-110.08 0-204.288-20.992-272.128-60.416-84.48-49.152-129.024-127.232-129.024-225.536 0-99.328 45.312-212.48 121.088-302.592 80.64-96 182.784-151.04 280.064-151.04s199.68 55.04 280.064 151.04c75.776 90.112 121.088 203.264 121.088 302.592 0 98.56-44.544 176.64-129.024 225.536-68.096 39.68-162.048 60.416-272.128 60.416z m0-678.144c-175.104 0-339.712 220.928-339.712 392.192 0 77.568 32.256 133.888 98.56 172.544C323.584 901.12 407.04 919.04 506.368 919.04c99.328 0 182.784-17.92 241.152-51.968 66.304-38.656 98.56-94.976 98.56-172.544 0-171.264-164.864-392.192-339.712-392.192z"  p-id="3592"></path><path d="M513.792 300.544h-5.632c-64.256-1.28-125.952-25.6-173.824-68.608l-77.056-68.864C235.264 143.104 227.84 112.64 238.336 84.992s36.608-45.568 66.048-45.568h41.472c19.456 0 38.144 5.888 54.016 16.896l21.76 15.104c9.216 6.4 21.248 6.4 30.464 0l16.384-11.264c23.552-16.384 54.272-16.896 78.336-1.536l21.76 14.08c9.216 5.888 20.736 5.632 29.696-0.512l21.76-15.36c16.128-11.264 34.816-17.408 54.528-17.408h24.576c35.072 0 65.28 21.248 77.056 54.272 11.776 33.024 2.048 68.608-25.088 90.88l-66.304 54.528c-48.384 39.936-108.8 61.44-171.008 61.44z m-138.496-114.432c77.056 68.864 190.72 71.424 270.336 5.632l66.304-54.528c9.984-8.192 7.68-18.688 6.4-22.784-1.536-4.096-6.4-13.568-19.2-13.568h-24.576c-6.912 0-13.312 2.048-18.944 6.144l-21.76 15.36c-29.696 20.992-68.608 21.76-98.816 2.048l-21.76-14.08c-3.072-2.048-6.912-1.792-9.728 0.256l-16.384 11.264c-30.208 20.992-70.656 20.992-100.608 0l-21.76-15.104c-5.632-3.84-12.032-5.888-18.688-5.888H304.64c-5.376 0-7.68 3.328-8.704 5.888-1.024 2.816-1.536 6.656 2.56 10.24l76.8 69.12z"  p-id="3593"></path></svg>