<?xml version="1.0" standalone="no"?><!DOCTYPE svg PUBLIC "-//W3C//DTD SVG 1.1//EN" "http://www.w3.org/Graphics/SVG/1.1/DTD/svg11.dtd"><svg t="1619355045742" class="icon" viewBox="0 0 1024 1024" version="1.1" xmlns="http://www.w3.org/2000/svg" p-id="2048" xmlns:xlink="http://www.w3.org/1999/xlink" width="128" height="128"><defs><style type="text/css"></style></defs><path d="M947.186504 380.50461 535.459055 91.422208c-2.918022-2.922419-7.297252-5.842039-10.22127-7.301849-11.678082-7.298851-29.196605-2.919421-37.956665 10.22127L78.471692 381.966019c-13.14089 8.760061-14.596104 27.739792-4.38083 42.341892 10.22127 14.6021 29.201002 18.981331 40.880683 10.216873l27.739792-20.438143 0 474.507484c0 17.520121 14.6021 32.120622 32.120622 32.120622 17.520121 0 32.120622-14.600501 32.120622-32.120622L206.952582 368.825129 513.559703 154.202243l309.525142 217.542506 0 515.388167c0 17.518522 14.600501 32.120622 32.120622 32.120622 17.518522 0 32.120622-14.6021 32.120622-32.120622L887.326089 418.465872l21.899152 14.6021c13.14089 8.758662 30.66401 4.38083 40.880683-10.22127C960.327194 408.244602 958.865985 389.263272 947.186504 380.50461L947.186504 380.50461 947.186504 380.50461 947.186504 380.50461zM364.64067 818.510842l-52.563162 0c-20.438143 0-24.818773 4.38083-24.818773 24.821771l0 54.021573c0 20.44254 4.38083 24.82337 24.818773 24.82337l52.563162 0c20.438143 0 24.817374-4.38083 24.817374-24.82337l0-54.021573C387.995235 822.891472 383.616004 818.510842 364.64067 818.510842L364.64067 818.510842 364.64067 818.510842 364.64067 818.510842zM364.64067 641.848819l-52.563162 0c-20.438143 0-24.818773 4.38083-24.818773 24.82337l0 52.558765c0 20.44254 4.38083 24.821771 24.818773 24.821771l52.563162 0c20.438143 0 24.817374-4.379231 24.817374-24.821771l0-54.021374C387.995235 646.229648 383.616004 641.848819 364.64067 641.848819L364.64067 641.848819 364.64067 641.848819 364.64067 641.848819zM539.839685 818.510842l-52.558565 0c-20.44254 0-24.82337 4.38083-24.82337 24.821771l0 54.021573c0 20.44254 4.38083 24.82337 24.82337 24.82337l52.558565 0c20.44254 0 24.82337-4.38083 24.82337-24.82337l0-54.021573C563.200246 822.891472 558.821015 818.510842 539.839685 818.510842L539.839685 818.510842 539.839685 818.510842 539.839685 818.510842zM715.044896 818.510842l-52.563162 0c-20.438143 0-24.818773 4.38083-24.818773 24.821771l0 54.021573c0 20.44254 4.38083 24.82337 24.818773 24.82337l52.563162 0c20.438143 0 24.818773-4.38083 24.818773-24.82337l0-54.021573C738.404058 822.891472 734.024627 818.510842 715.044896 818.510842L715.044896 818.510842 715.044896 818.510842 715.044896 818.510842zM539.839685 641.848819l-52.558565 0c-20.44254 0-24.82337 4.38083-24.82337 24.82337l0 52.558765c0 20.44254 4.38083 24.821771 24.82337 24.821771l52.558565 0c20.44254 0 24.82337-4.379231 24.82337-24.821771l0-54.021374C563.200246 646.229648 558.821015 641.848819 539.839685 641.848819L539.839685 641.848819 539.839685 641.848819 539.839685 641.848819zM364.64067 465.186995l-52.563162 0c-20.438143 0-24.818773 4.38083-24.818773 24.818773l0 54.019974c0 20.44254 4.38083 24.82337 24.818773 24.82337l52.563162 0c20.438143 0 24.817374-4.38083 24.817374-24.82337l0-54.019974C387.995235 468.106416 383.616004 465.186995 364.64067 465.186995L364.64067 465.186995 364.64067 465.186995 364.64067 465.186995z" p-id="2049"></path></svg>