<?xml version="1.0" standalone="no"?><!DOCTYPE svg PUBLIC "-//W3C//DTD SVG 1.1//EN" "http://www.w3.org/Graphics/SVG/1.1/DTD/svg11.dtd"><svg t="1654013482136" class="icon" viewBox="0 0 1024 1024" version="1.1" xmlns="http://www.w3.org/2000/svg" p-id="3123" xmlns:xlink="http://www.w3.org/1999/xlink" width="128" height="128"><defs><style type="text/css"></style></defs><path d="M925.5 922.3L883 262.8c-0.8-11.2-10.1-19.9-21.4-19.9H680.8c0.1-0.6 0.4-1.1 0.4-1.8 0-93.3-75.9-169.3-169.2-169.3s-169.2 75.9-169.2 169.3v1.8H162.2c-11.2 0-20.6 8.7-21.4 19.9L98.1 926.6c-0.4 5.9 1.7 11.7 5.7 16.1 4 4.3 9.7 6.8 15.7 6.8H905c11.8 0 21.4-9.6 21.4-21.4-0.1-2-0.4-3.9-0.9-5.8z m-540-681.2c0-69.7 56.7-126.4 126.4-126.4s126.4 56.7 126.4 126.4c0 0.6 0.3 1.1 0.4 1.8H385.5v-1.8zM142.4 906.6l39.9-620.9h160.5v48.4c-10.3 7-17.6 18.3-17.6 31.7 0 21.5 17.4 39 39 39 21.5 0 39-17.5 39-39 0-13.4-7.2-24.7-17.6-31.7v-48.4h252.9v48.4c-10.3 7-17.6 18.3-17.6 31.7 0 21.5 17.4 39 39 39 21.5 0 39-17.5 39-39 0-13.4-7.2-24.7-17.6-31.7v-48.4h160.5l39.9 620.9H142.4z" p-id="3124" fill="#8a8a8a"></path></svg>