<?xml version="1.0" standalone="no"?><!DOCTYPE svg PUBLIC "-//W3C//DTD SVG 1.1//EN" "http://www.w3.org/Graphics/SVG/1.1/DTD/svg11.dtd"><svg t="1664813750235" class="icon" viewBox="0 0 1024 1024" version="1.1" xmlns="http://www.w3.org/2000/svg" p-id="2575" xmlns:xlink="http://www.w3.org/1999/xlink" width="128" height="128"><path d="M640 742.4V853.333333h-85.333333v-174.933333c106.666667-17.066667 192-102.4 209.066666-209.066667h85.333334c-12.8 123.733333-98.133333 230.4-209.066667 273.066667z m-256 0c-115.2-42.666667-196.266667-149.333333-213.333333-273.066667h85.333333c17.066667 106.666667 102.4 192 209.066667 209.066667V853.333333H384v-110.933333zM605.866667 213.333333C674.133333 213.333333 725.333333 260.266667 725.333333 332.8c0 59.733333-51.2 123.733333-89.6 157.866667-25.6 25.6-68.266667 51.2-123.733333 81.066666-55.466667-29.866667-98.133333-55.466667-123.733333-81.066666-42.666667-38.4-89.6-98.133333-89.6-157.866667C298.666667 260.266667 349.866667 213.333333 418.133333 213.333333c38.4 0 68.266667 17.066667 93.866667 46.933334 25.6-29.866667 55.466667-46.933333 93.866667-46.933334z" fill="#444444" p-id="2576"></path></svg>