<?xml version="1.0" standalone="no"?><!DOCTYPE svg PUBLIC "-//W3C//DTD SVG 1.1//EN" "http://www.w3.org/Graphics/SVG/1.1/DTD/svg11.dtd"><svg t="1620407550708" class="icon" viewBox="0 0 1024 1024" version="1.1" xmlns="http://www.w3.org/2000/svg" p-id="1671" xmlns:xlink="http://www.w3.org/1999/xlink" width="128" height="128"><defs><style type="text/css"></style></defs><path d="M755.2 38.4c57.6 0 102.4 44.8 102.4 102.4v780.8c-6.4 38.4-44.8 57.6-70.4 57.6-19.2 0-32-6.4-51.2-19.2l-128-96c-32-25.6-64-38.4-96-38.4-25.6 0-51.2 6.4-70.4 25.6L294.4 960c-12.8 12.8-32 12.8-44.8 12.8-38.4 0-76.8-25.6-76.8-70.4v-768c0-57.6 44.8-102.4 102.4-102.4h480m0-32H268.8C192 0 128 64 128 140.8v768c0 64 57.6 108.8 115.2 108.8 25.6 0 51.2-6.4 70.4-25.6l147.2-108.8c12.8-12.8 32-19.2 51.2-19.2 19.2 0 44.8 6.4 70.4 25.6l128 96c19.2 19.2 44.8 25.6 70.4 25.6 51.2 0 102.4-32 108.8-89.6V134.4C896 64 832 0 755.2 0z" fill="" p-id="1672"></path><path d="M512 288c6.4 0 6.4 0 12.8 6.4l25.6 51.2c12.8 25.6 38.4 44.8 64 51.2l57.6 6.4c6.4 0 6.4 6.4 6.4 6.4v12.8l-38.4 38.4c-25.6 19.2-32 51.2-25.6 76.8l12.8 57.6v6.4l-6.4 6.4h-6.4l-64-25.6c-12.8-6.4-25.6-12.8-38.4-12.8-12.8 0-25.6 6.4-38.4 12.8l-57.6 25.6h-6.4c-6.4 0-6.4 0-6.4-6.4v-6.4l12.8-57.6c0-25.6-6.4-57.6-32-76.8l-38.4-38.4c-6.4-6.4-6.4-6.4 0-12.8l6.4-6.4 57.6-6.4c25.6-6.4 51.2-19.2 64-51.2l25.6-51.2c6.4-6.4 6.4-6.4 12.8-6.4m0-38.4c-19.2 0-38.4 6.4-44.8 25.6l-25.6 51.2c-6.4 12.8-19.2 25.6-38.4 25.6l-57.6 12.8c-38.4 6.4-57.6 51.2-25.6 83.2l44.8 38.4c12.8 12.8 19.2 25.6 12.8 44.8l-12.8 57.6c-6.4 32 19.2 57.6 51.2 57.6 6.4 0 12.8 0 25.6-6.4l51.2-25.6c6.4 0 12.8-6.4 19.2-6.4s12.8 0 25.6 6.4l51.2 25.6c6.4 6.4 12.8 6.4 25.6 6.4 32 0 57.6-25.6 51.2-57.6l-12.8-57.6c0-19.2 0-32 12.8-44.8L704 448c32-32 12.8-76.8-25.6-83.2l-57.6-12.8c-19.2 0-32-12.8-38.4-25.6l-25.6-51.2c-6.4-19.2-25.6-25.6-44.8-25.6z" fill="" p-id="1673"></path></svg>