<?xml version="1.0" standalone="no"?><!DOCTYPE svg PUBLIC "-//W3C//DTD SVG 1.1//EN" "http://www.w3.org/Graphics/SVG/1.1/DTD/svg11.dtd"><svg t="1609254105920" class="icon" viewBox="0 0 1024 1024" version="1.1" xmlns="http://www.w3.org/2000/svg" p-id="3509" xmlns:xlink="http://www.w3.org/1999/xlink" width="128" height="128"><defs><style type="text/css"></style></defs><path d="M208.624 160.48c0-35.136 31.088-56.48 60.032-56.48h551.312C848.912 104 880 125.344 880 160.48v606.608c0 23.632-15.072 42.496-34.304 51.056L584.064 934.56a63.312 63.312 0 0 1-55.488-1.968c-16.08-8.608-30.288-25.872-30.288-49.088V812.64H268.656c-28.96 0-60.032-21.36-60.032-56.48v-148.928a32 32 0 0 1 64 0v141.408h225.664V292.32c0-23.616 15.072-42.496 34.304-51.04L697.344 168H272.608v141.392a32 32 0 1 1-64 0V160.48zM816 185.264l-253.712 112.864v576.048L816 761.312V185.264z m-512.016 153.024a32 32 0 0 1 45.248 0.88l96.944 100.736a32 32 0 0 1 0 44.384l-96.96 100.752a32 32 0 0 1-46.112-44.384l44.8-46.56H120a32 32 0 0 1 0-64h227.904l-44.8-46.56A32 32 0 0 1 304 338.288z" p-id="3510"></path></svg>