<?xml version="1.0" standalone="no"?><!DOCTYPE svg PUBLIC "-//W3C//DTD SVG 1.1//EN" "http://www.w3.org/Graphics/SVG/1.1/DTD/svg11.dtd"><svg t="1609253168851" class="icon" viewBox="0 0 1024 1024" version="1.1" xmlns="http://www.w3.org/2000/svg" p-id="2075" xmlns:xlink="http://www.w3.org/1999/xlink" width="128" height="128"><defs><style type="text/css"></style></defs><path d="M374.784 479.232c-26.624-30.72-38.912-75.776-38.912-116.736C335.872 245.76 430.08 143.36 561.152 143.36c126.976 0 223.232 98.304 227.328 221.184h-114.688c0-65.536-45.056-116.736-110.592-116.736S450.56 296.96 450.56 362.496c0 36.864 16.384 69.632 43.008 90.112 2.048 2.048 2.048 108.544 2.048 321.536h280.576c12.288 0 20.48 8.192 20.48 20.48 0 2.048 0 4.096-2.048 8.192l-24.576 65.536c-2.048 8.192-10.24 12.288-18.432 12.288H311.296c-12.288 0-20.48-8.192-20.48-20.48v-65.536c0-12.288 8.192-20.48 20.48-20.48h65.536v-202.752l-2.048-92.16z" p-id="2076"></path><path d="M233.472 522.24l20.48-40.96c4.096-6.144 10.24-12.288 18.432-12.288H675.84c12.288 0 20.48 8.192 20.48 20.48 0 4.096 0 6.144-2.048 8.192l-20.48 40.96c-2.048 8.192-10.24 14.336-18.432 14.336H251.904c-12.288 0-20.48-8.192-20.48-20.48 0-4.096 0-8.192 2.048-10.24z" p-id="2077"></path></svg>