<?xml version="1.0" standalone="no"?><!DOCTYPE svg PUBLIC "-//W3C//DTD SVG 1.1//EN" "http://www.w3.org/Graphics/SVG/1.1/DTD/svg11.dtd"><svg t="1611942602171" class="icon" viewBox="0 0 1030 1024" version="1.1" xmlns="http://www.w3.org/2000/svg"  xmlns:xlink="http://www.w3.org/1999/xlink" width="128.75" height="128"><defs><style type="text/css"></style></defs><path d="M849.408 924.16H84.48c-41.472 0-74.24-29.184-74.24-66.56V251.392c0-36.864 33.28-66.56 74.24-66.56h764.416c41.472 0 74.24 29.184 74.24 66.56V445.44c0 14.336-11.264 25.6-25.6 25.6s-25.6-11.264-25.6-25.6V251.392c0-8.704-10.24-15.36-23.04-15.36H84.48c-12.8 0-23.04 8.192-23.04 15.36v606.208c0 8.704 10.24 15.36 23.04 15.36h764.928c12.8 0 23.04-8.192 23.04-15.36v-231.424c0-14.336 11.264-25.6 25.6-25.6s25.6 11.264 25.6 25.6v231.424c0 36.864-33.28 66.56-74.24 66.56z" ></path><path d="M251.392 743.936c-14.336 0-25.6-11.264-25.6-25.6v-125.952c0-14.336 11.264-25.6 25.6-25.6s25.6 11.264 25.6 25.6v125.952c0 14.336-11.264 25.6-25.6 25.6zM379.904 743.936c-14.336 0-25.6-11.264-25.6-25.6V403.968c0-14.336 11.264-25.6 25.6-25.6s25.6 11.264 25.6 25.6v314.368c0 14.336-11.264 25.6-25.6 25.6zM511.488 743.936c-14.336 0-25.6-11.264-25.6-25.6V484.864c0-14.336 11.264-25.6 25.6-25.6s25.6 11.264 25.6 25.6v233.472c0 14.336-11.264 25.6-25.6 25.6zM909.312 650.752H773.12c-64.512 0-116.736-52.224-116.736-116.736 0-64.512 52.224-116.736 116.736-116.736h136.192c64.512 0 116.736 52.224 116.736 116.736 0 64.512-52.224 116.736-116.736 116.736zM773.12 468.48c-36.352 0-65.536 29.184-65.536 65.536s29.184 65.536 65.536 65.536h136.192c36.864 0 65.536-28.672 65.536-65.536 0-36.352-29.184-65.536-65.536-65.536H773.12zM775.168 228.352c-2.56 0-4.608-0.512-7.168-1.024L230.4 72.704c-8.192-2.048-16.384 2.048-19.456 9.728l-48.128 124.928c-5.12 13.312-19.968 19.968-33.28 14.848s-19.968-19.968-14.848-33.28l48.128-124.928c12.288-32.256 47.104-49.664 80.896-40.448l538.112 154.624c13.824 4.096 21.504 17.92 17.408 31.744-2.56 11.264-12.8 18.432-24.064 18.432z"></path><path d="M781.312 537.088m-34.304 0a34.304 34.304 0 1 0 68.608 0 34.304 34.304 0 1 0-68.608 0Z"></path></svg>