<?xml version="1.0" standalone="no"?><!DOCTYPE svg PUBLIC "-//W3C//DTD SVG 1.1//EN" "http://www.w3.org/Graphics/SVG/1.1/DTD/svg11.dtd"><svg t="1608144486526" class="icon" viewBox="0 0 1024 1024" version="1.1" xmlns="http://www.w3.org/2000/svg" p-id="3127" xmlns:xlink="http://www.w3.org/1999/xlink" width="128" height="128"><defs><style type="text/css"></style></defs><path d="M672 320H352c-17.6 0-32 14.4-32 32s14.4 32 32 32h320c17.6 0 32-14.4 32-32s-14.4-32-32-32zM672 512H352c-17.6 0-32 14.4-32 32s14.4 32 32 32h320c17.6 0 32-14.4 32-32s-14.4-32-32-32z" fill="#2c2c2c" p-id="3128"></path><path d="M720 0H272c-17.6 0-32 14.4-32 32v32h-80c-52.8 0-96 43.2-96 96v768c0 52.8 43.2 96 96 96h704c52.8 0 96-43.2 96-96V480c0-17.6-14.4-32-32-32s-32 14.4-32 32v448c0 17.6-14.4 32-32 32H160c-17.6 0-32-14.4-32-32V160c0-17.6 14.4-32 32-32h80v32c0 17.6 14.4 32 32 32h448c17.6 0 32-14.4 32-32V128h112c17.6 0 32 14.4 32 32v128c0 17.6 14.4 32 32 32s32-14.4 32-32v-128c0-52.8-43.2-96-96-96h-112V32c0-17.6-14.4-32-32-32z m-32 128H304V64h384v64z"  p-id="3129"></path></svg>