<?xml version="1.0" standalone="no"?><!DOCTYPE svg PUBLIC "-//W3C//DTD SVG 1.1//EN" "http://www.w3.org/Graphics/SVG/1.1/DTD/svg11.dtd"><svg t="1605206293858" class="icon" viewBox="0 0 1024 1024" version="1.1" xmlns="http://www.w3.org/2000/svg" p-id="2323" xmlns:xlink="http://www.w3.org/1999/xlink" width="128" height="128"><defs><style type="text/css"></style></defs><path d="M488.9 399.5c-85.5 0-155-69.5-155-155s69.5-155 155-155 155 69.5 155 155-69.5 155-155 155z m0-280c-68.9 0-125 56.1-125 125s56.1 125 125 125 125-56.1 125-125-56-125-125-125zM759.3 855.4c-85.5 0-155-69.5-155-155s69.5-155 155-155 155 69.5 155 155-69.6 155-155 155z m0-280c-68.9 0-125 56.1-125 125s56.1 125 125 125 125-56.1 125-125-56.1-125-125-125z" fill="#2c2c2c" p-id="2324"></path><path d="M574.8 830.5H319.2c-52.4 0-95-42.6-95-95v-37c0-68.9 26.8-133.7 75.6-182.4s113.5-75.6 182.4-75.6c63.1 0 123.8 23 170.9 64.8 4.9 4.3 7.5 10.6 7.1 17.1-0.4 6.5-3.7 12.3-9.1 16-53.4 36.4-85.3 96.7-85.3 161.2 0 35 9.4 69.3 27.1 99.2 3.8 6.5 3.9 14.6 0.2 21.1-3.8 6.6-10.8 10.6-18.3 10.6z m-7.8-16.4z m-84.8-343.6c-125.7 0-228 102.3-228 228v37c0 35.8 29.2 65 65 65h240.5c-15.7-31.2-23.9-65.8-23.9-100.9 0-70.5 33-136.6 88.8-179.1-40.3-32.3-90.5-50-142.4-50z" fill="#2c2c2c" p-id="2325"></path><path d="M759.3 750.4c-8.3 0-15-6.7-15-15v-70c0-8.3 6.7-15 15-15s15 6.7 15 15v70c0 8.2-6.7 15-15 15z" fill="#2c2c2c" p-id="2326"></path><path d="M709.3 700.4c0-8.3 6.7-15 15-15h70c8.3 0 15 6.7 15 15s-6.7 15-15 15h-70c-8.3 0-15-6.8-15-15z" fill="#2c2c2c" p-id="2327"></path></svg>